<?xml version="1.0" standalone="no"?>
<!DOCTYPE svg PUBLIC "-//W3C//DTD SVG 20010904//EN"
 "http://www.w3.org/TR/2001/REC-SVG-20010904/DTD/svg10.dtd">
<svg version="1.0" xmlns="http://www.w3.org/2000/svg"
 width="1280.000000pt" height="681.000000pt" viewBox="0 0 1280.000000 681.000000"
 preserveAspectRatio="xMidYMid meet">
<g transform="translate(0.000000,681.000000) scale(0.100000,-0.100000)"
fill="#000000" stroke="none">
<path d="M6240 6799 c-74 -4 -252 -12 -395 -19 -770 -33 -1300 -109 -1655
-237 -359 -130 -653 -324 -975 -647 -231 -231 -457 -510 -723 -891 l-91 -131
-88 -12 c-258 -37 -721 -147 -998 -236 -494 -160 -863 -372 -1001 -576 -88
-131 -134 -392 -121 -695 l6 -140 -101 -130 -101 -129 12 -126 c6 -69 18 -206
27 -305 60 -723 204 -1166 410 -1256 45 -20 58 -21 3232 -22 l3187 -2 40 22
c55 29 116 97 148 164 14 30 53 135 87 233 33 98 74 205 91 237 52 104 114
266 207 539 141 413 189 518 314 683 122 161 273 294 371 326 177 58 299 -63
408 -404 16 -49 27 -72 23 -50 -9 60 -52 191 -88 270 -107 230 -270 284 -464
155 -135 -90 -333 -323 -417 -490 -63 -125 -102 -222 -190 -475 -96 -275 -134
-370 -202 -515 -30 -63 -77 -180 -104 -260 -88 -254 -145 -345 -231 -368 -19
-5 -475 -5 -1073 -1 -572 4 -1989 13 -3150 19 -1346 7 -2121 15 -2142 21 -74
24 -173 185 -227 371 -75 260 -132 668 -152 1093 l-6 140 66 88 c37 48 71 87
77 87 6 0 41 -27 77 -60 174 -158 433 -295 384 -203 -33 60 -241 228 -398 319
-18 10 -19 25 -18 240 1 465 56 591 346 784 338 226 943 422 1688 547 l104 18
186 247 c502 668 834 1006 1210 1232 423 254 862 350 1905 417 263 17 1496 23
1900 10 787 -26 1574 -76 2095 -132 784 -85 1476 -281 1781 -505 167 -122 361
-422 507 -785 191 -471 366 -1145 482 -1854 22 -137 48 -292 56 -343 l16 -94
67 -63 c64 -62 66 -65 64 -112 0 -26 -26 -145 -56 -264 -44 -175 -60 -225 -86
-263 -18 -26 -43 -72 -55 -102 -13 -31 -27 -56 -32 -57 -5 -1 -12 82 -15 188
-7 208 -26 338 -65 458 -69 209 -223 326 -413 315 -99 -6 -153 -32 -242 -115
-181 -171 -338 -537 -453 -1054 -65 -292 -68 -313 -56 -556 7 -141 7 -220 0
-227 -5 -5 -161 -13 -377 -17 -565 -12 -1248 -31 -1252 -35 -7 -7 192 -5 654
6 686 17 985 26 990 32 3 3 10 111 16 239 10 253 29 375 104 663 60 231 88
271 61 84 -30 -204 -39 -377 -33 -678 6 -324 16 -400 78 -577 63 -181 215
-454 330 -593 l20 -25 -19 40 c-11 22 -46 85 -77 140 -100 176 -180 371 -225
550 -58 228 -43 822 31 1201 55 289 152 484 263 535 127 57 253 -16 336 -195
95 -202 143 -470 176 -981 14 -210 15 -278 5 -428 -24 -348 -86 -655 -168
-822 -52 -107 -68 -119 -161 -123 -705 -29 -756 -30 -798 -12 -57 24 -115 100
-180 235 -48 97 -134 342 -180 508 -9 32 -18 56 -20 54 -8 -7 25 -180 56 -301
78 -303 182 -501 291 -556 36 -19 61 -20 471 -20 486 0 484 0 545 75 144 175
253 682 253 1183 l0 204 54 221 c30 122 62 256 72 297 10 43 40 119 71 179 44
86 63 141 109 315 30 116 59 221 65 234 28 69 -25 176 -117 232 -29 18 -34 27
-34 58 0 48 -62 449 -106 682 -179 958 -419 1685 -692 2095 -165 247 -273 336
-579 478 -349 161 -997 307 -1643 371 -435 44 -1146 90 -1710 111 -217 8 -516
19 -665 25 -300 12 -797 11 -1005 -1z m5889 -3820 c64 -27 144 -112 177 -186
35 -79 62 -199 74 -333 18 -203 9 -468 -14 -410 -3 8 -17 71 -31 139 -68 321
-168 506 -317 580 -51 26 -73 31 -132 31 -85 -1 -128 -15 -194 -64 -27 -20
-52 -36 -56 -36 -22 0 72 140 137 203 47 45 102 80 157 98 40 13 145 2 199
-22z m337 -1097 c-23 -196 -27 -222 -37 -222 -5 0 -9 56 -9 125 0 121 10 201
33 259 10 28 11 29 20 8 7 -15 5 -70 -7 -170z"/>
<path d="M9464 6375 c-294 -65 -524 -306 -657 -690 -65 -187 -109 -414 -126
-653 l-9 -116 39 -120 c63 -196 74 -196 34 0 -25 121 -25 126 -10 226 110 732
361 1154 740 1244 40 9 111 16 165 16 94 0 229 -17 242 -30 4 -4 12 -57 18
-117 9 -97 20 -141 95 -365 109 -324 203 -640 266 -894 49 -199 55 -235 42
-237 -303 -34 -358 -49 -108 -29 81 6 113 5 122 -3 19 -19 85 -383 117 -647
33 -267 38 -348 43 -733 3 -219 7 -396 9 -394 2 2 8 113 14 248 19 454 -14
931 -101 1457 -7 40 -9 75 -5 79 13 14 403 25 730 20 327 -4 340 -5 356 -25
21 -25 154 -423 214 -637 25 -88 45 -151 45 -140 1 34 -95 409 -153 595 -31
101 -50 179 -45 184 5 6 60 5 141 -2 110 -10 135 -10 146 2 11 11 6 77 -37
422 -27 225 -56 459 -62 519 -12 103 -15 112 -45 143 -18 17 -37 32 -43 32 -6
0 -20 -18 -31 -41 l-21 -40 91 -480 c51 -264 89 -486 87 -493 -4 -11 -30 -13
-119 -9 -62 3 -120 9 -129 14 -8 4 -41 81 -73 171 -134 373 -409 1024 -471
1113 -57 80 -50 79 305 -68 214 -88 277 -111 260 -94 -45 45 -469 261 -655
335 -222 88 -469 145 -963 222 -211 33 -354 37 -458 15z m801 -175 c365 -62
605 -122 624 -158 5 -9 14 -44 22 -77 7 -33 31 -98 54 -145 161 -325 485
-1075 485 -1122 0 -13 -51 -16 -337 -21 -186 -3 -425 -11 -530 -18 -106 -7
-195 -10 -199 -7 -3 4 -21 78 -39 165 -68 320 -151 640 -274 1052 -48 160 -68
211 -109 280 -28 47 -48 89 -45 94 7 12 65 5 348 -43z"/>
<path d="M7185 6369 c-1322 -14 -2518 -38 -2795 -56 l-115 -8 125 -6 c136 -7
1295 5 2070 21 808 17 2153 50 2180 54 43 5 -723 3 -1465 -5z"/>
<path d="M8736 6365 c4 -9 -20 -55 -56 -110 -70 -110 -162 -296 -214 -435 -57
-155 -114 -440 -156 -780 -10 -84 -23 -157 -27 -161 -5 -5 -66 -3 -144 6 -506
56 -1304 95 -1949 95 -864 0 -2205 -72 -3105 -165 -77 -8 -169 -18 -205 -21
-96 -10 -107 -23 -15 -18 640 36 1838 98 2225 115 401 17 1584 23 1955 10 389
-14 733 -34 1049 -62 126 -11 230 -18 232 -16 2 2 20 84 39 183 43 215 92 419
144 609 22 77 56 201 77 275 40 147 104 321 153 418 37 73 37 72 11 72 -13 0
-18 -5 -14 -15z"/>
<path d="M8000 4788 c-554 -116 -921 -277 -1072 -471 l-33 -42 55 46 c204 171
511 283 1020 369 96 16 132 27 157 46 18 14 33 29 33 33 0 10 -70 31 -96 30
-11 -1 -39 -5 -64 -11z"/>
<path d="M9938 4593 c12 -2 30 -2 40 0 9 3 -1 5 -23 4 -22 0 -30 -2 -17 -4z"/>
<path d="M8694 4505 c3 -44 16 -141 31 -215 46 -240 75 -505 95 -875 7 -137 8
-116 5 140 -4 314 -17 476 -61 765 -17 114 -33 180 -50 215 l-24 50 4 -80z"/>
<path d="M7940 4219 c-30 -5 -92 -27 -137 -49 -195 -96 -376 -334 -519 -683
-32 -76 -60 -140 -64 -142 -4 -3 -180 -40 -391 -84 -673 -139 -1197 -256
-1400 -312 -108 -31 -70 -37 79 -14 271 42 1612 300 1742 335 33 9 38 17 80
112 145 330 361 618 522 697 122 60 245 53 360 -21 275 -178 499 -686 559
-1267 16 -152 27 -134 28 44 1 293 -75 626 -204 890 -70 143 -123 223 -211
315 -136 142 -289 204 -444 179z"/>
<path d="M11435 4204 c-64 -16 -94 -41 -79 -66 12 -18 73 -38 119 -38 46 0
107 20 119 38 10 16 -3 38 -28 50 -29 13 -104 22 -131 16z"/>
<path d="M10142 4091 c-66 -23 -80 -35 -66 -59 16 -24 81 -36 158 -28 71 8
151 43 151 66 0 41 -147 54 -243 21z"/>
<path d="M6965 4013 c-231 -18 -350 -30 -657 -64 -472 -52 -1378 -166 -1386
-174 -2 -2 47 -103 108 -225 l112 -223 57 6 c31 3 223 18 426 33 l370 27 211
-41 c116 -23 224 -42 241 -42 29 0 601 114 608 121 13 15 65 521 52 508 -6 -5
-53 -282 -72 -421 -3 -25 -11 -51 -18 -56 -7 -5 -138 -23 -292 -41 l-280 -32
-225 51 c-195 45 -234 51 -290 45 -36 -3 -204 -22 -375 -41 -170 -19 -325 -34
-343 -34 -31 0 -37 8 -142 166 -61 91 -110 169 -110 174 0 12 32 17 230 35
844 79 1837 198 1864 225 10 10 -1 10 -89 3z"/>
<path d="M575 3974 c31 -26 163 -85 355 -158 96 -37 178 -70 182 -72 11 -7
-10 -41 -115 -189 l-93 -130 -171 4 -171 3 -70 -45 c-112 -72 -105 -86 19 -41
l72 26 175 -12 c170 -13 176 -12 191 7 9 11 63 101 120 202 69 121 101 185 94
192 -13 13 -299 136 -428 184 -55 21 -118 39 -140 42 -39 4 -39 4 -20 -13z"/>
<path d="M2410 3910 c-427 -14 -955 -50 -969 -66 -28 -30 -175 -396 -252 -626
-125 -373 -221 -850 -218 -1078 1 -60 2 -56 19 60 43 290 107 578 184 822 35
114 56 153 56 106 0 -13 -18 -115 -40 -228 -22 -112 -40 -215 -40 -227 0 -23
2 -23 118 -23 154 0 1754 29 1812 33 25 2 -386 4 -912 5 l-958 2 0 22 c0 12
16 73 35 135 19 62 51 165 71 228 l35 115 1514 0 1513 0 48 43 48 44 -38 34
c-21 19 -45 38 -52 42 -7 4 -699 -6 -1537 -23 -838 -16 -1534 -30 -1546 -30
-14 0 -21 6 -21 19 0 20 101 273 160 398 l38 81 53 6 c30 3 133 11 229 16 712
41 1429 39 2160 -5 387 -24 367 -21 397 -69 46 -72 177 -348 232 -485 49 -125
217 -627 275 -821 45 -154 126 -465 126 -486 l0 -21 -1922 -8 c-1058 -4 -1957
-8 -1998 -10 -41 -2 -175 -6 -298 -10 -122 -4 -246 -10 -275 -14 l-52 -7 75
-7 c566 -54 5829 -63 6430 -11 l85 8 -55 7 c-83 12 -703 29 -1353 38 -319 4
-582 12 -586 17 -5 5 -21 77 -36 159 -66 368 -143 701 -200 865 -122 352 -385
893 -439 905 -25 5 -295 21 -581 35 -302 14 -1038 20 -1335 10z"/>
<path d="M11741 3794 c0 -11 3 -14 6 -6 3 7 2 16 -1 19 -3 4 -6 -2 -5 -13z"/>
<path d="M11750 3748 c0 -9 -23 -33 -51 -54 -202 -153 -399 -657 -548 -1399
-46 -227 -91 -528 -90 -595 l0 -45 15 40 c8 22 60 211 114 420 188 724 284
1024 401 1258 66 131 145 237 176 237 8 0 16 7 19 15 10 26 76 39 120 25 50
-16 67 -28 132 -93 73 -70 167 -216 271 -416 47 -91 87 -158 89 -149 6 29 -74
249 -128 359 -103 205 -190 315 -291 369 -57 30 -67 32 -135 28 -44 -3 -77 -1
-84 6 -7 7 -10 5 -10 -6z"/>
<path d="M7930 2907 c477 -160 764 -415 891 -791 86 -253 89 -505 13 -951 -58
-340 -187 -676 -327 -850 -73 -90 -122 -133 -199 -173 l-53 -27 -435 4 -435 3
-130 64 c-143 69 -221 126 -283 206 -105 137 -148 239 -224 538 -27 107 -53
199 -58 204 -27 27 -24 -250 4 -382 60 -275 191 -472 379 -567 43 -21 81 -43
83 -47 3 -4 -81 -8 -186 -8 l-191 0 -74 35 c-104 50 -238 141 -316 217 -166
159 -259 346 -315 631 l-24 122 4 -120 c9 -252 100 -475 271 -662 75 -83 228
-197 343 -256 l92 -48 303 -9 c166 -5 421 -12 567 -15 146 -3 343 -11 439 -16
123 -8 179 -8 195 0 11 5 47 21 79 35 174 75 334 276 447 562 151 379 232 986
176 1309 -30 170 -104 361 -189 484 -44 64 -163 200 -196 225 -139 101 -185
131 -269 175 -120 61 -273 115 -402 141 -153 31 -148 23 20 -33z"/>
<path d="M8561 2934 c0 -11 3 -14 6 -6 3 7 2 16 -1 19 -3 4 -6 -2 -5 -13z"/>
<path d="M6030 2681 c-94 -31 -186 -116 -214 -198 -20 -60 -20 -146 0 -207 22
-64 100 -147 166 -177 80 -35 193 -34 270 4 111 55 173 153 173 277 0 172
-124 299 -298 306 -40 2 -83 0 -97 -5z"/>
<path d="M334 2641 c-94 -43 -150 -155 -142 -285 18 -264 291 -347 413 -126
27 50 30 63 30 150 0 84 -3 101 -27 146 -61 115 -171 162 -274 115z"/>
<path d="M7850 2258 c-51 -145 -102 -287 -112 -316 -20 -54 -50 -82 -65 -60
-4 7 -39 136 -78 287 -38 151 -75 276 -81 278 -11 4 -174 -380 -174 -410 0 -9
32 -84 71 -167 l70 -151 -21 -34 c-12 -19 -26 -35 -30 -35 -5 0 -50 25 -100
55 -50 30 -97 55 -104 55 -13 0 -129 -377 -120 -392 3 -4 65 -8 138 -8 144 0
174 -9 162 -47 -4 -11 -92 -103 -196 -203 -105 -100 -190 -186 -190 -191 0
-12 205 -302 224 -318 15 -12 19 -5 246 382 66 112 82 124 115 86 17 -17 22
-63 42 -366 13 -191 26 -349 28 -352 6 -6 307 58 317 68 4 3 -22 146 -57 316
-36 171 -65 322 -65 336 0 17 8 30 26 40 26 13 28 12 249 -216 149 -154 226
-227 233 -220 22 22 183 338 180 353 -2 9 -112 81 -256 166 -224 134 -252 153
-252 176 0 14 4 31 9 38 4 8 124 39 276 73 148 32 271 61 274 64 3 4 -7 68
-23 143 -47 229 -58 272 -68 272 -5 0 -126 -50 -269 -112 -188 -81 -262 -109
-270 -101 -8 8 32 95 145 316 l157 306 -23 15 c-27 17 -295 136 -307 136 -5 0
-50 -118 -101 -262z m255 173 c80 -35 131 -63 133 -73 2 -9 -65 -150 -149
-313 l-152 -297 21 -20 21 -21 258 111 c200 86 261 109 269 99 12 -13 74 -291
74 -332 0 -29 12 -25 -290 -91 -147 -32 -231 -55 -242 -66 -19 -19 -36 -90
-22 -95 5 -2 119 -70 254 -151 187 -113 245 -153 245 -168 0 -26 -146 -304
-160 -304 -5 0 -107 100 -226 222 l-216 223 -41 -28 c-23 -15 -42 -32 -42 -37
0 -5 30 -152 66 -327 59 -279 65 -318 51 -328 -25 -18 -246 -60 -258 -48 -5 5
-19 160 -31 344 l-22 334 -35 33 c-20 18 -42 31 -49 30 -8 -2 -78 -111 -156
-243 -80 -136 -148 -240 -156 -240 -14 0 -199 250 -200 269 0 5 86 92 190 194
l191 185 -3 41 -3 41 -140 5 c-127 5 -140 7 -143 24 -4 19 72 290 88 316 6 10
31 0 103 -43 53 -31 100 -57 106 -57 12 0 61 81 61 101 0 8 -32 82 -71 164
l-71 150 68 168 c38 92 74 167 81 167 14 0 11 9 87 -294 30 -120 58 -222 63
-227 6 -6 23 -4 45 5 35 15 35 16 138 308 107 306 116 328 128 327 4 0 65 -26
137 -58z"/>
<path d="M12000 2290 c0 -5 5 -10 11 -10 5 0 7 5 4 10 -3 6 -8 10 -11 10 -2 0
-4 -4 -4 -10z"/>
<path d="M11847 1863 c-4 -3 -7 -22 -6 -42 l1 -36 13 35 c7 19 14 38 14 43 1
9 -13 9 -22 0z"/>
<path d="M11705 1730 c3 -5 8 -10 11 -10 2 0 4 5 4 10 0 6 -5 10 -11 10 -5 0
-7 -4 -4 -10z"/>
<path d="M9329 1650 c-155 -8 -224 -22 -169 -34 201 -46 878 -80 1480 -74 390
4 495 11 463 31 -38 24 -528 61 -998 77 -330 11 -539 11 -776 0z"/>
<path d="M185 1415 c10 -295 91 -636 210 -881 118 -243 265 -383 450 -428 82
-20 1326 -74 1480 -64 102 7 170 42 265 137 122 122 234 309 330 551 39 97 83
240 75 240 -3 0 -40 -71 -84 -158 -214 -423 -378 -625 -546 -673 -17 -5 -107
-5 -210 1 -278 15 -791 39 -990 45 -99 4 -213 11 -254 16 -306 39 -526 397
-676 1105 -53 254 -55 258 -50 109z"/>
<path d="M11890 1001 c0 -12 5 -21 10 -21 6 0 10 6 10 14 0 8 -4 18 -10 21 -5
3 -10 -3 -10 -14z"/>
<path d="M11750 990 c0 -11 5 -20 10 -20 6 0 10 9 10 20 0 11 -4 20 -10 20 -5
0 -10 -9 -10 -20z"/>
<path d="M2080 920 c0 -5 5 -10 10 -10 6 0 10 5 10 10 0 6 -4 10 -10 10 -5 0
-10 -4 -10 -10z"/>
<path d="M11630 724 c0 -8 5 -12 10 -9 6 3 10 10 10 16 0 5 -4 9 -10 9 -5 0
-10 -7 -10 -16z"/>
<path d="M12110 629 c0 -5 5 -7 10 -4 6 3 10 8 10 11 0 2 -4 4 -10 4 -5 0 -10
-5 -10 -11z"/>
</g>
</svg>
