<?xml version="1.0" standalone="no"?>
<!DOCTYPE svg PUBLIC "-//W3C//DTD SVG 20010904//EN"
 "http://www.w3.org/TR/2001/REC-SVG-20010904/DTD/svg10.dtd">
<svg version="1.0" xmlns="http://www.w3.org/2000/svg"
 width="1280.000000pt" height="660.000000pt" viewBox="0 0 1280.000000 660.000000"
 preserveAspectRatio="xMidYMid meet">
<g transform="translate(0.000000,660.000000) scale(0.100000,-0.100000)"
fill="#000000" stroke="none">
<path d="M3690 6590 c-47 -5 -179 -13 -295 -19 -277 -15 -668 -51 -680 -62 -5
-6 -3 -9 5 -9 33 0 141 -61 195 -110 50 -45 61 -51 89 -46 56 10 615 65 821
81 772 59 1624 39 2469 -56 98 -11 180 -18 182 -16 11 10 -468 100 -731 137
-191 27 -630 66 -895 80 -113 6 -257 15 -322 20 -134 12 -712 11 -838 0z"/>
<path d="M2275 6459 c-362 -74 -757 -277 -1105 -567 -144 -121 -324 -299 -400
-398 -81 -105 -135 -153 -199 -181 -19 -8 -113 -29 -208 -47 -146 -27 -178
-36 -198 -57 -28 -28 -122 -214 -131 -257 -6 -30 -6 -30 62 -45 330 -74 887
-188 899 -183 8 3 47 69 86 148 58 115 85 157 141 218 85 92 92 103 113 210
50 257 147 584 206 701 36 73 88 132 145 165 53 31 285 113 442 156 108 29
129 32 273 33 l155 0 76 -37 c137 -68 232 -194 335 -443 72 -173 293 -830 293
-870 0 -57 13 -63 143 -67 64 -2 117 -3 117 -1 0 1 -23 60 -51 130 -28 71 -97
250 -154 398 -131 345 -183 472 -243 593 -115 232 -180 315 -287 367 -111 55
-338 70 -510 34z m-985 -786 c-99 -299 -111 -327 -138 -342 -22 -12 -311 16
-331 32 -21 17 -7 95 30 170 47 97 174 221 361 354 119 85 139 95 157 78 11
-11 -1 -56 -79 -292z"/>
<path d="M1234 5848 c-83 -59 -221 -177 -272 -232 -46 -50 -102 -156 -102
-193 0 -27 6 -29 159 -43 92 -9 116 -8 123 2 7 12 168 492 168 503 0 12 -21 2
-76 -37z"/>
<path d="M4245 6403 c-315 -12 -1218 -93 -1237 -111 -4 -4 15 -45 42 -92 71
-123 143 -287 265 -605 58 -154 141 -367 183 -474 l76 -194 101 6 c55 4 145
16 200 27 55 12 183 32 285 45 226 30 301 50 433 117 l102 52 295 43 c977 142
1218 158 2322 151 405 -2 734 0 732 4 -6 9 -435 316 -664 475 -246 170 -521
338 -660 402 -54 24 -95 33 -235 50 -426 52 -794 85 -1130 101 -183 9 -912 11
-1110 3z"/>
<path d="M2275 6306 c-99 -20 -184 -42 -307 -82 -243 -77 -305 -111 -356 -191
-67 -107 -141 -336 -213 -661 -42 -190 -42 -192 -23 -213 20 -23 73 -49 98
-49 8 0 0 14 -20 34 -32 32 -34 38 -34 104 0 83 33 253 97 492 49 187 80 260
137 326 32 37 48 46 148 78 205 66 424 106 573 106 267 0 397 -107 519 -426
68 -181 167 -465 227 -659 35 -110 67 -206 72 -212 18 -24 29 -1 22 46 -8 51
-213 668 -271 813 -114 286 -219 424 -362 479 -72 26 -211 33 -307 15z"/>
<path d="M2215 6193 c-102 -15 -290 -59 -383 -88 -96 -31 -114 -40 -147 -76
-59 -65 -90 -150 -155 -425 -66 -275 -80 -398 -49 -430 12 -11 47 -18 120 -25
169 -13 161 -15 154 25 -9 46 11 142 40 192 60 104 221 157 516 171 211 9 364
-15 451 -72 21 -14 40 -25 42 -25 3 0 23 58 45 129 l41 130 -35 96 c-75 207
-150 311 -263 367 -65 32 -70 33 -207 34 -77 1 -153 0 -170 -3z"/>
<path d="M7770 5625 c0 -7 169 -125 179 -125 16 0 14 32 -4 57 -8 11 -36 29
-62 38 -54 19 -113 35 -113 30z"/>
<path d="M2885 5530 c-15 -47 -31 -119 -35 -160 -8 -93 -46 -197 -80 -219 -18
-12 -55 -17 -158 -19 -142 -4 -505 11 -685 29 -60 6 -111 8 -114 5 -6 -5 43
-82 57 -91 3 -2 186 -22 406 -44 633 -64 834 -82 849 -79 10 2 9 16 -7 68 -49
165 -182 561 -193 577 -11 15 -16 6 -40 -67z"/>
<path d="M635 5503 c-81 -19 -260 -81 -308 -106 -54 -28 -117 -90 -105 -103
10 -9 292 47 338 67 46 20 106 72 142 122 l19 27 -33 -1 c-18 -1 -42 -3 -53
-6z"/>
<path d="M2160 5480 c-230 -32 -322 -85 -350 -201 -7 -28 -11 -52 -9 -54 2 -2
49 -8 104 -14 283 -30 807 -42 838 -18 20 15 57 109 57 145 -1 48 -62 100
-150 127 -64 20 -381 30 -490 15z"/>
<path d="M6635 5324 c-390 -9 -685 -29 -1050 -74 -191 -23 -668 -90 -673 -94
-1 -2 57 -11 130 -20 995 -129 1680 -262 2366 -462 665 -193 1088 -360 1735
-685 l319 -160 71 30 c201 83 638 181 1225 275 500 80 720 101 1094 101 360 0
350 -14 93 129 -356 198 -581 303 -819 383 -72 24 -131 43 -132 43 -1 0 0 -8
3 -18 10 -39 -11 -41 -388 -46 -358 -4 -504 -13 -919 -56 -359 -38 -603 -70
-805 -107 -295 -54 -368 -52 -635 15 -213 53 -476 136 -497 156 -7 6 -9 17 -4
24 12 19 582 113 926 151 421 48 958 75 1383 69 155 -1 275 0 265 4 -27 11
-481 111 -688 152 -169 33 -328 56 -490 71 -38 4 -182 22 -320 40 -419 57
-508 64 -830 69 -466 8 -1202 13 -1360 10z"/>
<path d="M1258 5063 c-55 -57 -78 -91 -137 -210 -39 -78 -67 -145 -62 -148 5
-3 25 4 45 16 24 14 44 19 64 15 22 -5 33 -1 56 23 78 81 164 58 150 -41 -4
-26 1 -40 23 -65 28 -31 29 -31 787 -192 418 -89 761 -160 763 -158 1 2 36 96
77 208 41 113 91 242 110 288 20 45 36 84 36 86 0 11 -382 51 -1330 140 -201
19 -381 39 -401 45 -20 6 -53 21 -73 35 -20 14 -38 25 -39 25 -1 0 -32 -30
-69 -67z"/>
<path d="M4658 5103 c-32 -14 -58 -29 -58 -32 0 -4 150 -24 333 -45 1166 -133
1760 -274 2632 -626 404 -163 1398 -627 1416 -662 41 -77 -101 -93 -893 -105
-334 -4 -478 -10 -478 -17 0 -6 9 -31 20 -55 l20 -44 563 6 c671 7 827 19 934
69 23 11 74 50 115 86 40 37 88 77 106 90 17 13 32 28 32 33 0 11 -457 241
-709 355 -758 347 -1689 620 -2705 794 -266 46 -615 96 -966 140 -135 16 -258
32 -275 35 -20 3 -50 -5 -87 -22z"/>
<path d="M1601 5096 c2 -2 49 -6 104 -9 59 -3 88 -2 70 2 -30 9 -182 14 -174
7z"/>
<path d="M4414 5000 c-34 -10 -153 -30 -264 -44 -111 -14 -207 -29 -213 -33
-6 -4 115 -28 268 -53 815 -137 1393 -293 2057 -556 347 -137 673 -294 1107
-532 130 -71 189 -98 226 -103 123 -16 1285 18 1318 38 22 14 -781 396 -1203
573 -959 403 -1566 552 -2827 695 -350 39 -382 40 -469 15z"/>
<path d="M9595 4929 c-228 -7 -581 -31 -745 -49 -47 -6 -89 -10 -95 -10 -21
-1 30 -22 265 -110 l243 -90 271 30 c263 29 511 51 724 65 57 4 101 9 99 11
-14 14 -474 164 -500 162 -18 0 -135 -5 -262 -9z"/>
<path d="M10295 4857 l210 -74 195 -6 c121 -3 189 -2 178 4 -9 5 -114 39 -235
75 l-218 66 -170 4 -170 4 210 -73z"/>
<path d="M3620 4881 c-55 -6 -55 -6 60 -24 654 -104 1366 -260 1765 -386 486
-153 791 -296 1444 -678 107 -62 210 -117 230 -123 40 -11 232 -12 301 -2 l45
7 -45 26 c-123 73 -478 257 -665 347 -340 162 -592 264 -970 390 -541 182
-941 278 -1629 392 -350 58 -414 64 -536 51z"/>
<path d="M3185 4798 c-37 -81 -185 -479 -185 -497 0 -13 -12 -10 434 -106 220
-47 416 -90 438 -95 35 -10 50 -31 29 -44 -6 -4 -749 147 -880 179 l-24 6 7
-443 c3 -244 11 -492 16 -553 18 -225 23 -360 12 -397 -6 -21 -6 -40 -2 -43
13 -8 544 -205 553 -205 4 0 7 64 7 143 0 218 30 426 85 588 70 205 244 440
397 536 29 18 96 47 148 64 78 26 116 33 212 37 104 4 126 2 207 -22 106 -30
261 -105 381 -184 165 -109 372 -342 564 -634 43 -65 81 -120 86 -123 23 -14
707 -98 723 -88 4 2 21 32 38 66 65 129 149 236 295 377 119 115 207 186 292
232 l63 35 -228 133 c-356 209 -443 256 -678 371 -500 244 -947 382 -1758 544
-252 50 -874 158 -1158 201 l-36 5 -38 -83z"/>
<path d="M0 4805 c0 -35 4 -97 10 -137 5 -40 17 -138 25 -218 9 -80 27 -215
41 -302 13 -86 27 -198 30 -250 5 -88 27 -182 43 -192 4 -3 7 115 7 262 -1
255 0 270 22 335 26 75 72 132 117 143 89 22 239 -152 361 -417 50 -109 171
-406 263 -645 26 -68 37 -83 69 -102 20 -11 54 -38 75 -59 32 -34 40 -51 55
-123 l17 -85 115 -52 c63 -29 121 -52 128 -53 9 0 4 15 -13 43 -58 93 -135
263 -175 384 -34 103 -50 136 -80 168 -56 59 -83 122 -150 346 -65 218 -114
429 -155 659 -14 80 -29 158 -33 175 l-8 30 -359 77 c-198 43 -370 78 -382 78
-22 0 -23 -4 -23 -65z"/>
<path d="M8440 4834 c-231 -35 -546 -86 -554 -92 -14 -8 133 -56 354 -114 184
-49 202 -52 320 -52 104 -1 163 6 348 39 122 22 222 42 222 45 0 3 -114 47
-252 98 -277 101 -271 100 -438 76z"/>
<path d="M1277 4742 c-23 -25 -22 -29 10 -36 28 -8 43 5 43 37 0 23 -32 22
-53 -1z"/>
<path d="M826 4663 c100 -581 241 -1083 316 -1129 23 -14 2 193 -37 361 -53
231 -71 339 -90 525 -8 91 -18 183 -21 206 l-5 41 -75 17 c-99 21 -96 22 -88
-21z"/>
<path d="M1040 4643 c0 -20 31 -322 36 -353 18 -121 30 -182 61 -320 47 -208
63 -310 63 -401 0 -52 4 -79 13 -82 153 -62 1694 -642 1741 -655 10 -3 22 1
27 9 13 20 11 137 -5 375 -8 115 -18 393 -22 617 -6 404 -7 409 -28 418 -11 5
-358 81 -770 169 l-749 159 -29 -21 c-16 -11 -36 -38 -45 -59 -36 -91 -123
-74 -158 30 -12 38 -23 52 -45 59 -16 6 -36 22 -45 36 -16 24 -45 36 -45 19z"/>
<path d="M1220 4548 c0 -20 29 -58 45 -58 18 0 40 39 28 51 -5 5 -23 12 -41
15 -24 5 -32 3 -32 -8z"/>
<path d="M273 4378 c-47 -52 -73 -144 -72 -256 0 -67 0 -67 14 -31 27 73 56
118 106 163 28 25 62 49 75 52 33 8 30 16 -16 58 -46 41 -78 45 -107 14z"/>
<path d="M360 4229 c-36 -29 -60 -58 -77 -95 -75 -163 -104 -585 -63 -909 32
-256 48 -327 117 -540 51 -157 101 -259 168 -342 75 -94 112 -113 226 -113
123 0 637 56 680 74 69 29 119 109 119 191 0 29 -7 35 -117 94 -287 156 -299
172 -328 416 -10 80 -23 141 -34 160 -9 17 -43 48 -76 70 l-59 40 -135 340
c-198 494 -282 655 -346 655 -13 0 -47 -18 -75 -41z m119 -179 c172 -125 316
-676 298 -1140 -7 -176 -25 -277 -62 -358 -31 -68 -50 -91 -90 -107 -46 -20
-84 -7 -136 45 -159 159 -280 663 -266 1104 6 194 23 292 67 383 51 103 114
127 189 73z"/>
<path d="M364 4004 c-16 -15 -24 -32 -21 -42 3 -9 34 -93 69 -187 l62 -169 12
89 c6 50 19 120 29 157 17 66 17 67 -4 97 -30 42 -79 81 -102 81 -11 0 -31
-12 -45 -26z"/>
<path d="M305 3886 c-3 -9 -7 -23 -10 -32 -3 -9 -1 -22 5 -29 5 -7 37 -92 71
-191 33 -98 62 -180 64 -182 2 -2 11 8 20 21 15 24 15 29 -23 119 -22 51 -56
140 -76 198 -41 115 -43 120 -51 96z"/>
<path d="M552 3797 c-15 -58 -26 -228 -18 -261 10 -39 26 -22 26 27 0 23 7 83
15 134 10 64 12 100 5 117 -5 15 -11 26 -14 26 -2 0 -9 -19 -14 -43z"/>
<path d="M277 3734 c-16 -16 -4 -475 12 -474 3 1 33 25 65 54 l59 53 -65 187
c-35 102 -67 183 -71 180z"/>
<path d="M616 3608 c-10 -97 -7 -166 8 -203 16 -37 26 -41 56 -25 18 10 14 39
-37 258 -10 43 -20 31 -27 -30z"/>
<path d="M345 3238 l-47 -53 6 -64 c3 -35 8 -66 11 -70 4 -3 32 4 63 15 55 20
57 22 55 55 -4 80 -19 163 -29 166 -6 2 -33 -20 -59 -49z"/>
<path d="M660 3232 c0 -35 7 -59 27 -90 15 -23 31 -42 36 -42 9 0 1 125 -9
163 -3 10 -15 17 -30 17 -22 0 -24 -4 -24 -48z"/>
<path d="M630 3069 c-12 -27 -11 -36 6 -66 10 -20 35 -54 56 -77 l37 -41 1 59
c0 52 -4 64 -36 107 -20 27 -39 49 -44 49 -4 0 -13 -14 -20 -31z"/>
<path d="M388 3017 c-32 -12 -58 -27 -58 -34 0 -27 52 -200 83 -273 38 -91 70
-147 75 -131 2 6 -1 96 -7 199 -6 103 -11 202 -11 219 0 17 -6 33 -12 36 -7 2
-39 -5 -70 -16z"/>
<path d="M524 2985 c-4 -9 -1 -86 5 -173 6 -86 11 -192 11 -234 0 -43 3 -78 8
-78 4 0 7 113 7 250 0 197 -3 250 -13 250 -7 0 -15 -7 -18 -15z"/>
<path d="M606 2924 c-8 -21 -8 -329 0 -388 7 -46 7 -46 27 -29 28 25 54 88 72
172 26 123 23 138 -39 204 -41 43 -55 53 -60 41z"/>
<path d="M11725 4194 c-154 -8 -369 -26 -530 -45 -349 -41 -943 -144 -1245
-215 -200 -47 -420 -117 -420 -133 0 -4 33 -25 73 -46 l72 -38 180 56 c457
142 687 193 1235 276 456 70 591 83 845 85 127 0 262 -2 300 -6 70 -8 70 -8
47 11 -37 32 -144 50 -322 54 -91 3 -196 3 -235 1z"/>
<path d="M11627 4074 c-251 -25 -798 -108 -1068 -163 -243 -50 -413 -95 -720
-192 -155 -49 -157 -49 -259 -130 -226 -179 -372 -358 -655 -802 -71 -111 -86
-141 -74 -148 8 -5 47 -8 88 -7 l73 3 87 150 c151 262 279 435 445 600 110
110 206 176 326 224 76 30 484 134 750 190 514 109 1177 191 1540 191 139 0
185 -13 234 -66 26 -28 26 -28 26 -6 0 41 -22 110 -39 126 -48 43 -457 59
-754 30z"/>
<path d="M12054 3566 c-71 -212 -125 -388 -121 -392 6 -7 301 80 327 96 6 4
34 87 61 186 43 151 52 196 56 291 5 95 3 117 -12 139 -20 31 -61 49 -131 59
l-52 7 -128 -386z"/>
<path d="M11905 3933 c-330 -20 -895 -99 -1248 -174 -274 -58 -615 -143 -627
-156 -4 -4 -41 -141 -83 -303 -115 -445 -138 -542 -133 -547 12 -12 697 97
1141 182 254 48 579 121 782 175 l122 32 131 392 c71 215 130 394 130 399 0 7
-107 7 -215 0z"/>
<path d="M4344 3916 c-162 -31 -263 -82 -364 -185 -222 -224 -325 -497 -336
-891 l-5 -165 35 60 c20 33 41 78 46 100 97 371 143 500 220 617 60 92 122
149 211 193 95 48 170 65 291 65 178 0 339 -56 493 -171 86 -64 263 -242 369
-371 l79 -97 76 -20 c120 -32 131 -34 131 -24 0 13 -171 263 -234 343 -131
166 -248 278 -381 365 -237 156 -448 216 -631 181z"/>
<path d="M9415 3747 c-16 -12 -69 -56 -117 -98 -48 -43 -107 -87 -131 -98 -58
-28 -159 -49 -276 -57 -78 -6 -97 -11 -112 -28 -9 -12 -128 -174 -263 -361
-208 -287 -244 -341 -229 -347 23 -10 459 -98 483 -98 12 0 44 40 96 123 289
451 431 630 646 809 60 50 105 94 102 99 -7 13 -140 79 -156 79 -7 0 -26 -11
-43 -23z"/>
<path d="M4321 3655 c-171 -31 -298 -132 -385 -305 -46 -91 -109 -272 -121
-345 l-6 -40 22 30 c12 17 63 71 114 120 136 134 287 216 492 267 149 38 363
32 603 -18 40 -8 -114 133 -207 188 -91 56 -169 85 -273 104 -92 16 -143 16
-239 -1z"/>
<path d="M7258 3610 c-120 -11 -181 -31 -265 -87 -148 -98 -358 -302 -450
-439 -55 -80 -96 -165 -86 -174 4 -4 40 -11 78 -15 l70 -6 25 48 c42 80 119
193 197 290 179 221 262 260 607 284 83 6 152 12 153 13 2 1 -7 22 -20 47
l-22 44 -100 1 c-55 1 -139 -2 -187 -6z"/>
<path d="M9872 3560 c-166 -68 -306 -191 -498 -440 -124 -161 -297 -440 -281
-456 6 -7 616 65 642 75 16 7 26 33 49 127 32 130 172 674 181 705 9 26 -6 24
-93 -11z"/>
<path d="M8225 3470 c-163 -3 -266 -8 -246 -13 44 -9 103 -71 119 -124 18 -59
15 -157 -8 -251 -24 -98 -48 -150 -94 -195 -47 -47 -97 -68 -179 -74 -65 -4
-77 -2 -126 24 -46 23 -60 38 -87 87 -52 95 -70 175 -57 252 12 66 61 184 91
217 25 28 67 47 136 62 59 13 57 13 -114 14 -360 2 -551 -33 -661 -120 -73
-57 -67 -59 212 -56 233 2 252 1 263 -16 9 -15 7 -21 -8 -33 -16 -11 -70 -14
-291 -14 -225 0 -274 -3 -292 -15 -28 -20 -145 -175 -141 -187 2 -6 138 -9
352 -8 340 1 376 -2 376 -31 0 -4 -7 -15 -16 -23 -13 -14 -63 -16 -390 -16
l-374 0 -24 -48 c-13 -26 -27 -64 -31 -84 -6 -31 -4 -38 17 -52 23 -15 84 -15
649 -6 343 5 689 10 769 10 l146 0 191 263 c244 336 313 433 313 441 0 3 -48
5 -107 4 -60 -2 -234 -5 -388 -8z"/>
<path d="M12350 3387 c-12 -40 -26 -90 -33 -112 l-12 -40 -130 -43 c-653 -218
-1721 -424 -2880 -557 -140 -16 -242 -32 -260 -42 -49 -25 -149 -12 -495 62
l-315 67 -659 -7 c-362 -4 -653 -11 -645 -15 20 -11 372 -85 519 -109 334 -55
585 -76 1365 -117 165 -8 327 -12 360 -9 112 13 808 114 1201 174 894 139
1390 239 1684 339 134 46 345 132 434 176 115 58 124 96 46 195 -37 47 -65 68
-132 98 l-28 12 -20 -72z"/>
<path d="M1210 3426 c0 -3 16 -54 36 -113 40 -119 108 -257 182 -373 l48 -75
803 -349 c441 -192 804 -346 807 -343 3 3 -11 38 -32 78 -34 69 -38 86 -65
297 -15 123 -30 227 -33 230 -3 2 -214 82 -468 177 -255 95 -638 239 -853 320
-411 156 -425 161 -425 151z"/>
<path d="M7770 3406 c-77 -17 -97 -32 -131 -102 -37 -79 -37 -94 0 -29 18 31
43 58 65 70 34 18 37 18 71 2 46 -22 65 -66 65 -149 -1 -151 -121 -254 -194
-167 -30 35 -35 52 -39 134 l-2 60 -9 -50 c-11 -62 3 -133 41 -211 36 -74 67
-97 140 -102 178 -13 268 98 280 344 5 93 4 105 -17 143 -13 23 -37 47 -56 56
-38 18 -135 19 -214 1z"/>
<path d="M4504 3350 c-136 -25 -300 -92 -419 -173 -229 -156 -429 -507 -516
-909 -74 -344 2 -836 185 -1196 152 -299 355 -546 580 -706 97 -70 243 -141
380 -185 193 -63 275 -76 481 -75 167 0 187 2 270 27 152 46 285 117 498 262
l87 60 -6 57 c-6 53 -3 64 36 147 l43 90 -38 180 c-21 100 -41 181 -45 181 -4
0 -20 -34 -35 -75 -51 -141 -173 -318 -283 -412 -184 -158 -368 -231 -607
-240 -252 -10 -448 49 -683 207 -480 321 -747 951 -647 1526 68 388 312 710
635 837 137 54 184 62 365 62 151 0 179 -3 245 -23 88 -28 190 -78 363 -179
71 -41 131 -72 134 -70 6 7 -154 262 -209 334 -22 29 -73 90 -114 137 l-73 84
-138 27 c-151 30 -393 42 -489 25z"/>
<path d="M12630 3237 c0 -62 -60 -101 -316 -208 -477 -198 -1004 -304 -2839
-570 -330 -48 -356 -49 -823 -24 -709 37 -1037 70 -1387 140 -263 52 -591 126
-622 140 -38 17 -67 67 -59 101 7 25 -1 28 -107 37 -47 5 -49 3 -62 -27 -69
-165 1 -246 280 -325 355 -101 1101 -211 1715 -252 217 -14 757 -6 996 15
1084 98 2090 288 2761 522 150 53 563 213 603 234 18 10 18 12 3 48 -17 42
-90 148 -122 176 -21 19 -21 19 -21 -7z"/>
<path d="M5430 3005 c0 -4 28 -53 63 -109 155 -247 227 -398 313 -656 82 -246
155 -526 238 -915 65 -305 123 -556 130 -563 6 -6 592 -112 621 -112 11 0 47
18 80 40 78 53 192 96 300 115 108 19 323 20 778 3 376 -13 632 -5 1047 35
l225 22 8 60 c9 64 1 1026 -9 1182 l-7 92 -276 -6 c-307 -7 -543 4 -908 42
-568 59 -932 115 -1238 191 -370 91 -481 177 -445 344 23 104 45 91 -215 121
-126 15 -274 34 -327 41 -68 10 -98 11 -98 4 0 -6 15 -36 34 -67 133 -222 250
-481 352 -786 42 -125 80 -232 84 -236 10 -11 389 -76 810 -138 190 -28 351
-56 357 -61 16 -13 9 -44 -24 -118 -38 -86 -66 -110 -130 -110 -29 0 -193 20
-365 46 -584 84 -598 88 -634 142 -9 14 -32 84 -50 156 -38 154 -114 387 -180
553 -52 133 -196 423 -275 555 l-51 86 -91 22 c-51 12 -97 25 -104 27 -7 3
-13 2 -13 -2z m3089 -1360 c166 -40 281 -163 281 -302 0 -88 -78 -242 -160
-316 -63 -56 -203 -129 -300 -156 -158 -44 -277 -38 -430 20 -83 32 -161 99
-208 179 -24 39 -27 56 -27 130 0 73 4 93 29 145 34 69 149 191 211 223 49 24
211 77 280 91 65 13 243 5 324 -14z"/>
<path d="M8167 1604 c-38 -8 -90 -23 -115 -32 -44 -17 -47 -20 -42 -47 14 -82
5 -160 -27 -227 -53 -112 -126 -168 -220 -168 -18 0 -33 -4 -33 -8 0 -4 13
-28 28 -53 44 -69 102 -112 194 -145 73 -26 96 -29 198 -29 137 0 219 22 346
91 106 57 166 118 215 220 45 93 51 161 20 229 -21 48 -98 121 -148 142 -101
42 -290 54 -416 27z"/>
<path d="M4700 2974 c-114 -10 -320 -72 -320 -96 0 -17 146 -234 244 -363 50
-66 130 -159 177 -207 116 -118 128 -118 230 -10 87 91 364 437 364 454 0 28
-300 175 -410 202 -64 16 -211 26 -285 20z"/>
<path d="M12645 2919 c-157 -65 -443 -172 -575 -216 -647 -211 -1609 -389
-2610 -481 l-185 -17 5 -310 c3 -170 5 -473 4 -671 l-1 -362 45 -6 c25 -3 72
-6 105 -6 l61 0 -41 35 c-22 19 -50 55 -62 81 -26 54 -28 78 -41 534 -8 255
-7 327 3 337 6 6 118 26 247 43 1016 134 2129 390 2695 618 192 77 410 173
421 185 6 7 23 66 38 132 15 66 29 128 32 138 8 25 -6 21 -141 -34z"/>
<path d="M1147 2903 c7 -60 34 -113 71 -145 69 -58 415 -234 897 -456 753
-347 1383 -632 1395 -632 6 0 9 8 6 18 -3 9 -10 68 -16 131 -5 63 -13 118 -17
121 -5 4 -498 220 -1098 480 -600 260 -1119 486 -1153 502 -89 39 -93 38 -85
-19z"/>
<path d="M4230 2794 c-70 -53 -70 -53 -19 -164 36 -76 76 -142 192 -308 47
-67 103 -159 124 -203 50 -105 64 -109 139 -40 31 29 69 58 85 67 35 18 36 35
5 77 -13 18 -97 138 -186 267 -196 283 -247 350 -265 350 -7 0 -41 -21 -75
-46z"/>
<path d="M3015 2723 c2 -16 14 -107 26 -203 20 -167 23 -179 67 -273 25 -53
53 -103 61 -111 9 -8 84 -44 166 -79 l150 -65 8 71 c15 140 37 256 71 367 l33
111 -26 11 c-156 60 -536 198 -546 198 -10 0 -13 -8 -10 -27z"/>
<path d="M5458 2682 c-43 -28 -355 -418 -393 -491 -13 -26 -12 -27 44 -54 59
-29 128 -87 173 -146 l26 -34 26 52 c15 29 75 132 135 229 59 97 122 205 140
238 l33 62 -21 40 c-20 40 -104 122 -125 122 -6 0 -23 -8 -38 -18z"/>
<path d="M4052 2619 c-168 -215 -254 -511 -237 -815 4 -66 11 -127 15 -135 21
-33 297 51 517 157 126 60 130 65 120 160 -7 69 -58 174 -173 359 -48 77 -109
184 -136 238 -28 53 -52 97 -54 97 -2 0 -25 -27 -52 -61z"/>
<path d="M12595 2573 c-156 -69 -459 -187 -580 -226 -349 -113 -913 -254
-1390 -347 -362 -70 -1123 -190 -1211 -190 l-24 0 5 -207 c12 -456 16 -550 26
-588 15 -52 82 -119 134 -134 121 -33 420 7 821 109 619 159 899 249 1397 449
339 136 417 180 539 304 149 151 230 316 349 716 22 73 39 139 37 145 -2 9
-36 -2 -103 -31z"/>
<path d="M5627 2373 c-94 -163 -258 -474 -263 -501 -3 -15 1 -53 9 -84 16 -63
55 -104 189 -200 97 -70 427 -272 434 -266 8 8 -108 481 -178 723 -41 145
-124 384 -138 398 -4 5 -28 -27 -53 -70z"/>
<path d="M12350 1718 c-55 -59 -80 -93 -71 -96 7 -2 58 -38 113 -80 56 -42
103 -71 107 -66 13 14 31 99 31 143 0 50 -31 136 -61 167 -13 13 -25 24 -28
23 -3 0 -44 -41 -91 -91z"/>
<path d="M6196 1753 c14 -79 30 -117 56 -136 31 -23 87 -33 603 -107 267 -39
355 -48 373 -40 25 11 77 112 69 134 -3 7 -39 18 -89 25 l-83 12 -27 -32 c-40
-47 -78 -69 -122 -69 -42 0 -661 95 -689 106 -22 8 -49 58 -56 104 -4 23 -13
36 -24 38 -16 3 -17 -1 -11 -35z"/>
<path d="M4305 1729 c-200 -56 -428 -129 -444 -142 -18 -15 -9 -89 21 -163 28
-71 47 -78 174 -64 175 19 544 90 544 105 0 1 -12 28 -26 60 -32 68 -54 148
-54 193 0 26 -5 35 -26 42 -33 13 -28 14 -189 -31z"/>
<path d="M6280 1747 c0 -37 23 -58 71 -67 214 -40 632 -98 651 -91 26 10 64
48 56 56 -3 3 -149 28 -324 55 -176 27 -341 54 -367 60 -74 15 -87 13 -87 -13z"/>
<path d="M5370 1605 c0 -32 -42 -132 -76 -182 -20 -29 -34 -59 -31 -68 7 -17
638 -335 667 -335 23 0 41 37 70 143 l19 67 -22 14 c-12 7 -76 43 -142 80 -66
38 -198 119 -293 182 -95 63 -177 114 -182 114 -6 0 -10 -7 -10 -15z"/>
<path d="M12108 1535 c-157 -81 -705 -295 -998 -389 -179 -58 -756 -213 -945
-254 -319 -69 -669 -104 -835 -83 -54 6 -123 9 -152 6 -110 -13 -110 -9 -2
-83 55 -37 126 -88 159 -113 33 -25 92 -67 131 -93 l70 -46 60 20 c32 12 307
90 609 175 957 268 1220 354 1880 620 154 62 297 118 318 125 20 6 37 15 37
18 -1 4 -39 36 -85 70 -111 85 -132 87 -247 27z"/>
<path d="M12530 1431 c-14 -15 -48 -36 -75 -45 -28 -10 -171 -67 -320 -126
-687 -275 -1005 -381 -1920 -635 -269 -75 -537 -152 -595 -170 -114 -37 -154
-42 -600 -70 -462 -29 -870 -45 -1190 -45 -530 0 -768 23 -1409 136 -172 30
-316 53 -319 50 -7 -7 25 -207 35 -217 4 -4 82 -23 173 -43 91 -20 342 -82
558 -137 216 -55 430 -106 475 -114 133 -24 326 -21 967 16 345 19 1204 102
1248 119 12 5 42 40 66 77 77 119 82 122 346 186 245 60 634 176 1250 374 441
141 809 278 1044 387 54 25 105 46 112 46 8 0 26 -18 40 -40 16 -24 34 -40 43
-38 32 6 88 150 106 272 8 52 1 55 -35 17z"/>
<path d="M4310 1335 c-52 -7 -144 -16 -205 -19 -130 -8 -165 -14 -165 -28 0
-21 100 -208 164 -306 76 -118 201 -247 322 -334 83 -59 218 -132 267 -144 27
-6 27 -6 27 42 0 27 -9 146 -20 264 -11 118 -20 258 -20 310 0 114 -13 164
-50 202 -28 27 -32 28 -127 27 -54 -1 -141 -7 -193 -14z"/>
<path d="M4769 1258 c-23 -43 4 -717 30 -767 14 -25 82 -51 136 -51 52 0 47
-17 70 230 8 91 25 244 37 342 11 97 18 187 14 201 -9 37 -109 67 -221 67 -46
0 -56 -3 -66 -22z"/>
<path d="M5180 1227 c-33 -27 -40 -49 -59 -178 -30 -204 -61 -487 -61 -558 l0
-64 93 6 c120 8 190 27 313 87 116 56 240 144 302 215 54 62 134 181 136 203
1 12 -41 35 -154 85 -85 38 -204 91 -265 119 -123 57 -238 98 -269 98 -12 0
-28 -6 -36 -13z"/>
<path d="M8820 780 c-262 -27 -569 -31 -985 -16 -445 17 -588 13 -722 -20 -73
-18 -179 -66 -248 -114 -24 -17 -50 -30 -58 -30 -12 0 -209 34 -613 105 -29 5
-32 2 -59 -55 -16 -33 -27 -61 -24 -64 11 -10 566 -105 795 -136 398 -54 887
-72 1384 -51 376 15 1144 62 1152 70 8 7 -117 100 -311 231 -149 100 -136 97
-311 80z"/>
</g>
</svg>
