<svg fill="#000000" xmlns="http://www.w3.org/2000/svg"  viewBox="0 0 100 100" width="100px" height="100px"><path d="M 48.943359 23.001953 C 45.899937 23.031613 42.856092 23.242056 39.849609 23.636719 A 1.0001 1.0001 0 0 0 39.833984 23.638672 C 28.831184 25.268455 17.952942 28.121169 9.4003906 36.515625 A 1.0001 1.0001 0 0 0 9.3925781 36.523438 C 5.1958583 40.734876 2.6519526 47.124572 4.7460938 53.324219 A 1.0001 1.0001 0 0 0 4.7539062 53.34375 C 7.4414233 60.763496 14.469611 65.541354 20.650391 68.318359 A 1.0001 1.0001 0 0 0 20.660156 68.322266 C 38.848885 76.268896 63.379645 76.001964 81.023438 66.890625 A 1.0001 1.0001 0 0 0 81.042969 66.878906 C 87.105785 63.570428 94.071394 58.020745 94.943359 49.814453 A 1.0001 1.0001 0 0 0 94.945312 49.792969 C 95.322467 45.352719 93.682314 41.455798 91.21875 38.279297 C 88.755186 35.102796 85.470566 32.600208 82.398438 30.783203 A 1.0001 1.0001 0 0 0 82.388672 30.777344 C 80.097362 29.461715 77.707422 28.406314 75.3125 27.451172 A 1.0001 1.0001 0 0 0 75.289062 27.441406 C 67.198448 24.441806 58.073627 22.912979 48.943359 23.001953 z M 48.962891 25.003906 C 57.856346 24.920016 66.754332 26.41288 74.591797 29.318359 C 74.591797 29.318359 74.59375 29.318359 74.59375 29.318359 C 76.934618 30.252579 79.227181 31.269649 81.390625 32.511719 C 81.390625 32.511719 81.392578 32.511719 81.392578 32.511719 C 84.304087 34.235169 87.396194 36.612472 89.638672 39.503906 C 91.881762 42.39613 93.277031 45.756645 92.953125 49.611328 C 92.186838 56.771389 85.891748 61.952412 80.101562 65.115234 C 63.124613 73.88039 39.03185 74.162695 21.470703 66.494141 L 21.46875 66.492188 C 21.46635 66.491088 21.463337 66.491332 21.460938 66.490234 C 15.556641 63.835849 9.0363671 59.280217 6.6386719 52.671875 C 4.8451817 47.344622 7.0389673 41.723065 10.800781 37.943359 L 10.804688 37.939453 L 10.808594 37.935547 C 18.915317 29.983619 29.269738 27.22695 40.121094 25.619141 C 40.123094 25.618839 40.124853 25.617487 40.126953 25.617188 C 43.045308 25.234832 46.004091 25.031817 48.962891 25.003906 z M 49.658203 27.337891 C 47.657667 27.370631 45.955972 28.404495 44.589844 29.800781 C 43.223716 31.197068 42.165755 32.967468 41.402344 34.589844 L 41.400391 34.59375 L 41.398438 34.597656 C 40.268167 37.12974 38.881092 40.279245 39.916016 43.402344 L 39.927734 43.441406 L 39.947266 43.478516 C 40.513846 44.551212 41.441494 45.292863 42.484375 45.578125 L 42.492188 45.580078 L 42.5 45.582031 C 46.560583 46.554595 50.16863 44.824107 53.574219 43.916016 L 53.59375 43.910156 L 53.613281 43.902344 C 55.314195 43.294946 57.00942 42.666006 58.6875 41.986328 A 0.50032874 0.50032874 0 1 0 58.3125 41.058594 C 56.654484 41.730145 54.974323 42.355029 53.283203 42.958984 C 53.281303 42.959678 53.279344 42.960237 53.277344 42.960938 C 49.761745 43.903476 46.388891 45.479372 42.742188 44.609375 C 41.993864 44.402667 41.304589 43.862951 40.859375 43.044922 C 40.000816 40.385819 41.192699 37.514492 42.3125 35.005859 C 43.042749 33.455961 44.057452 31.776722 45.304688 30.501953 C 46.553582 29.225487 48.008038 28.366426 49.671875 28.337891 C 54.479525 28.300171 59.11674 28.773362 63.609375 29.636719 L 63.605469 29.634766 C 63.78346 29.670156 63.95184 29.700815 64.109375 29.734375 L 64.111328 29.734375 L 64.115234 29.734375 C 64.586984 29.828725 65.061888 29.937339 65.541016 30.041016 C 67.99795 30.599791 70.379203 31.29462 72.666016 32.105469 C 72.729916 32.151519 72.777137 32.194659 72.808594 32.244141 C 72.844994 32.331611 72.84364 32.336291 72.78125 32.439453 C 72.7217 32.537913 72.581291 32.689958 72.439453 32.869141 C 71.079693 34.030573 69.674098 35.072213 68.228516 36.015625 A 0.50005 0.50005 0 1 0 68.773438 36.853516 C 70.261045 35.882676 71.7127 34.809377 73.115234 33.609375 L 73.15625 33.574219 L 73.189453 33.529297 C 73.279073 33.409691 73.473659 33.229869 73.638672 32.957031 C 73.803685 32.684194 73.905054 32.239389 73.728516 31.830078 L 73.720703 31.808594 L 73.708984 31.787109 C 73.566342 31.526387 73.357432 31.353168 73.179688 31.236328 L 73.128906 31.205078 L 73.072266 31.183594 C 70.724252 30.347826 68.277786 29.637756 65.755859 29.064453 L 65.753906 29.064453 L 65.751953 29.0625 C 65.281142 28.960646 64.802551 28.853193 64.316406 28.755859 L 64.310547 28.753906 C 64.132376 28.716096 63.962878 28.686527 63.800781 28.654297 L 63.798828 28.654297 L 63.796875 28.654297 C 59.245645 27.779702 54.54046 27.299613 49.662109 27.337891 L 49.660156 27.337891 L 49.658203 27.337891 z M 34.433594 28.90625 L 34.384766 28.917969 C 33.726355 29.052873 33.06847 29.196593 32.412109 29.349609 A 0.50005 0.50005 0 1 0 32.638672 30.322266 C 33.265524 30.176128 33.894759 30.039536 34.523438 29.910156 C 34.610467 29.912456 34.673351 29.921591 34.722656 29.931641 L 34.708984 29.992188 C 33.848467 31.065226 33.018171 32.156014 32.222656 33.265625 A 0.50005 0.50005 0 1 0 33.035156 33.847656 C 33.842963 32.7209 34.683605 31.612919 35.558594 30.525391 L 35.628906 30.439453 L 35.810547 29.693359 L 35.730469 29.53125 C 35.596346 29.256661 35.340964 29.071031 35.109375 28.992188 C 34.877786 28.913348 34.665643 28.90625 34.484375 28.90625 L 34.433594 28.90625 z M 29.451172 30.128906 A 0.50005 0.50005 0 0 0 29.318359 30.150391 C 24.34829 31.575742 19.513444 33.685968 15.193359 37.068359 A 0.50005 0.50005 0 1 0 15.808594 37.855469 C 20.00251 34.571865 24.709819 32.511976 29.59375 31.111328 A 0.50005 0.50005 0 0 0 29.451172 30.128906 z M 81.224609 35.433594 L 81.109375 35.480469 C 80.836108 35.592919 80.537852 35.781816 80.289062 36.09375 L 80.244141 36.148438 L 80.216797 36.212891 C 78.867833 39.473553 77.404383 42.793162 75.832031 46.017578 L 75.830078 46.019531 L 75.830078 46.021484 C 72.424541 53.185681 68.551628 60.238773 63.457031 66.511719 L 63.376953 66.607422 L 63.253906 67.25 L 63.267578 67.335938 C 63.322208 67.683477 63.65037 67.971004 63.890625 68.037109 C 64.13088 68.103219 64.310614 68.087137 64.345703 68.091797 L 64.404297 68.099609 L 64.462891 68.09375 C 64.894894 68.04781 65.284146 67.960933 65.650391 67.904297 L 65.667969 67.900391 L 65.6875 67.896484 C 70.531913 66.774281 75.08334 65.164185 79.111328 63.083984 L 79.115234 63.082031 L 79.121094 63.078125 C 83.333009 60.780349 88.473314 57.058854 90.21875 51.802734 L 90.220703 51.800781 L 90.220703 51.798828 C 90.291313 51.579387 90.348901 51.362971 90.404297 51.158203 C 90.456387 50.965939 90.520206 50.755259 90.570312 50.519531 L 90.572266 50.517578 L 90.572266 50.513672 C 90.693106 49.908417 90.755773 49.31661 90.771484 48.736328 L 90.771484 48.734375 L 90.771484 48.732422 C 90.773384 48.647712 90.776131 48.547091 90.769531 48.429688 C 90.768231 47.888599 90.727021 47.359202 90.646484 46.839844 L 90.644531 46.832031 L 90.642578 46.824219 C 90.643146 46.827219 90.643107 46.764619 90.621094 46.644531 C 90.532934 46.139678 90.394953 45.665204 90.25 45.207031 L 90.25 45.205078 L 90.25 45.203125 C 90.140042 44.86505 90.012832 44.531736 89.873047 44.207031 L 89.871094 44.199219 C 89.846484 44.139879 89.820509 44.077047 89.792969 44.015625 C 88.128067 40.303935 84.765429 37.471056 82.193359 35.701172 L 82.138672 35.664062 L 82.074219 35.642578 C 81.894712 35.580018 81.658767 35.47542 81.347656 35.445312 L 81.224609 35.433594 z M 30.533203 36.095703 A 0.50005 0.50005 0 0 0 30.128906 36.328125 C 25.165564 43.934649 21.430222 52.20088 17.857422 60.414062 C 17.671704 60.593615 17.584435 60.596897 17.421875 60.542969 C 14.251268 58.415078 11.068122 55.447105 9.6757812 51.617188 C 9.6753768 51.615988 9.6761849 51.614481 9.6757812 51.613281 C 9.5265897 51.16931 9.4315529 50.714088 9.3515625 50.246094 L 9.3515625 50.244141 C 9.3251595 50.085786 9.2971689 49.934154 9.2792969 49.792969 L 9.28125 49.796875 C 9.2275 49.341916 9.2008457 48.895886 9.2148438 48.462891 L 9.2148438 48.453125 L 9.2148438 48.445312 C 9.2148438 48.429592 9.2193631 48.375162 9.2207031 48.308594 C 9.3707706 45.163954 11.106252 42.22375 13.029297 40.294922 A 0.50005 0.50005 0 1 0 12.322266 39.587891 C 10.25531 41.661063 8.3866382 44.78248 8.2207031 48.259766 L 8.2207031 48.271484 L 8.2207031 48.283203 C 8.2207031 48.297003 8.2157837 48.353412 8.2148438 48.429688 C 8.2147806 48.431587 8.2149052 48.433547 8.2148438 48.435547 C 8.2148028 48.440747 8.2148438 48.439813 8.2148438 48.445312 C 8.1999627 48.935136 8.2294714 49.4262 8.2871094 49.914062 L 8.2871094 49.916016 L 8.2871094 49.917969 C 8.3091624 50.092188 8.3397474 50.257232 8.3652344 50.410156 L 8.3652344 50.412109 C 8.4489554 50.902183 8.5506638 51.4152 8.7265625 51.9375 L 8.7285156 51.941406 L 8.7304688 51.947266 C 10.243522 56.120097 13.646772 59.242744 16.949219 61.443359 L 17.003906 61.480469 L 17.066406 61.501953 C 17.529026 61.657075 18.160481 61.562153 18.611328 61.099609 L 18.675781 61.035156 L 18.710938 60.951172 C 22.298067 52.701225 26.031786 44.438105 30.966797 36.875 A 0.50005 0.50005 0 0 0 30.533203 36.095703 z M 81.388672 36.480469 C 81.470982 36.500809 81.558971 36.524183 81.673828 36.564453 C 84.16154 38.282687 87.352846 41.023621 88.878906 44.425781 C 88.902276 44.477911 88.926649 44.535283 88.949219 44.589844 L 88.951172 44.591797 L 88.953125 44.595703 C 89.082073 44.894671 89.197675 45.200626 89.298828 45.511719 C 89.438726 45.954172 89.561074 46.384896 89.636719 46.820312 L 89.638672 46.822266 L 89.638672 46.824219 C 89.638655 46.824126 89.637576 46.886769 89.660156 47.007812 C 89.732786 47.481218 89.771484 47.962497 89.771484 48.455078 L 89.771484 48.470703 L 89.771484 48.484375 C 89.774784 48.542005 89.773584 48.618195 89.771484 48.710938 C 89.757114 49.23804 89.700824 49.772269 89.591797 50.318359 C 89.553867 50.495115 89.494817 50.684928 89.4375 50.896484 C 89.38124 51.104446 89.328485 51.304637 89.269531 51.488281 C 87.666968 56.314161 82.75071 59.958948 78.640625 62.201172 C 74.705259 64.232155 70.238329 65.815328 65.474609 66.919922 C 65.087397 66.980752 64.732992 67.055099 64.392578 67.09375 C 64.351458 67.08995 64.332878 67.087637 64.304688 67.085938 L 64.318359 67.017578 C 69.439181 60.68408 73.329717 53.610611 76.730469 46.457031 L 76.732422 46.451172 C 78.298385 43.239497 79.751308 39.939508 81.09375 36.699219 C 81.19228 36.580858 81.285538 36.532033 81.388672 36.480469 z M 64.492188 38.269531 A 0.50005 0.50005 0 0 0 64.267578 38.330078 C 63.288676 38.843308 62.296373 39.324706 61.292969 39.78125 A 0.50005 0.50005 0 1 0 61.707031 40.691406 C 62.725627 40.22795 63.735324 39.739567 64.732422 39.216797 A 0.50005 0.50005 0 0 0 64.492188 38.269531 z M 54.689453 51.179688 C 51.928103 51.07249 49.343523 51.903322 46.951172 52.658203 L 46.939453 52.662109 L 46.929688 52.666016 C 39.604615 55.345873 32.111082 57.921826 25.789062 63.519531 L 25.779297 63.527344 L 25.769531 63.537109 C 25.401798 63.900903 25.096435 64.508186 25.308594 65.158203 L 25.324219 65.205078 L 25.347656 65.246094 C 25.464904 65.456497 25.61832 65.60621 25.757812 65.722656 L 25.826172 65.779297 L 25.910156 65.808594 C 28.282322 66.660192 30.759574 67.368247 33.310547 67.945312 L 33.3125 67.945312 C 34.205124 68.143674 35.10401 68.339883 36.019531 68.507812 C 36.697118 68.633664 37.377371 68.750632 38.064453 68.857422 C 39.08941 69.01814 40.119779 69.144361 41.150391 69.259766 L 41.152344 69.259766 C 42.322082 69.389737 43.499362 69.490002 44.685547 69.564453 C 45.266449 69.601643 45.847604 69.633033 46.431641 69.658203 L 46.433594 69.658203 L 46.435547 69.658203 C 47.43158 69.696283 48.433631 69.728516 49.447266 69.728516 C 49.580837 69.728516 49.682068 69.720703 49.759766 69.720703 L 49.792969 69.720703 L 49.826172 69.714844 C 52.740639 69.32012 55.069077 67.069588 56.554688 64.550781 L 56.564453 64.533203 L 56.572266 64.517578 C 58.084061 61.456243 60.005092 58.153055 59.294922 54.130859 L 59.289062 54.091797 L 59.275391 54.052734 C 58.752596 52.5552 57.351314 51.500792 55.886719 51.287109 L 55.884766 51.285156 L 55.882812 51.285156 C 55.481121 51.228556 55.083932 51.195001 54.689453 51.179688 z M 54.648438 52.179688 C 55.011299 52.193237 55.375979 52.223863 55.742188 52.275391 C 56.804113 52.430325 57.92139 53.278775 58.3125 54.357422 C 58.923527 57.946736 57.208751 60.969123 55.6875 64.046875 C 54.304473 66.388434 52.17079 68.384508 49.701172 68.722656 C 49.601642 68.724856 49.509361 68.728516 49.447266 68.728516 C 48.455552 68.728516 47.465922 68.698046 46.474609 68.660156 L 46.472656 68.660156 C 45.897343 68.635346 45.322496 68.603176 44.748047 68.566406 C 43.576232 68.492856 42.413981 68.393654 41.261719 68.265625 C 40.238377 68.150989 39.221793 68.026423 38.21875 67.869141 C 37.541832 67.763931 36.869586 67.647586 36.201172 67.523438 C 35.30732 67.359482 34.42 67.168197 33.53125 66.970703 L 33.529297 66.970703 C 31.048573 66.409457 28.646631 65.715876 26.345703 64.894531 C 26.316323 64.865811 26.290414 64.839093 26.271484 64.814453 C 26.222644 64.616291 26.292784 64.431833 26.470703 64.253906 C 32.603198 58.831344 39.929038 56.292041 47.251953 53.613281 L 47.257812 53.611328 C 49.649575 52.85664 52.108409 52.084842 54.648438 52.179688 z"/></svg>