<svg xmlns="http://www.w3.org/2000/svg"  viewBox="0 0 30 30" width="30px" height="30px"><path fill="#dbf2ff" d="M15,2.5C8.096,2.5,2.5,8.096,2.5,15c0,6.904,5.596,12.5,12.5,12.5S27.5,21.904,27.5,15 C27.5,8.096,21.904,2.5,15,2.5z M15,24.5c-5.247,0-9.5-4.253-9.5-9.5S9.753,5.5,15,5.5s9.5,4.253,9.5,9.5S20.247,24.5,15,24.5z"/><path fill="#7496c4" d="M15,28C7.832,28,2,22.168,2,15S7.832,2,15,2s13,5.832,13,13S22.168,28,15,28z M15,3 C8.383,3,3,8.383,3,15s5.383,12,12,12s12-5.383,12-12S21.617,3,15,3z M15,25C9.486,25,5,20.514,5,15S9.486,5,15,5s10,4.486,10,10 S20.514,25,15,25z M15,6c-4.963,0-9,4.037-9,9s4.037,9,9,9s9-4.037,9-9S19.963,6,15,6z"/><path fill="#dbf2ff" d="M0.5,11.764v0.404v5.663v0.404c9.647,1.689,19.313,1.682,29,0v-0.404v-5.663v-0.404 C19.853,10.075,10.187,10.082,0.5,11.764z"/><path fill="#7496c4" d="M14.971,19.994c-4.874,0-9.736-0.422-14.557-1.266L0,18.656v-7.313l0.414-0.071 c9.719-1.688,19.533-1.688,29.172,0L30,11.344v7.313l-0.414,0.071C24.728,19.572,19.843,19.994,14.971,19.994z M1,17.815 c9.255,1.572,18.669,1.571,28-0.001v-5.63c-9.255-1.572-18.669-1.571-28,0.001V17.815z"/><g><path fill="#66798f" d="M6,15.408l-1.731-2.216C4.174,13.071,4.029,13,3.875,13H3.5C3.224,13,3,13.224,3,13.5V17h1v-2.528 l1.825,2.336C5.92,16.929,6.064,17,6.219,17H6.5C6.776,17,7,16.776,7,16.5V13H6V15.408z"/><path fill="#66798f" d="M26,13v2.408l-1.731-2.216C24.174,13.071,24.029,13,23.875,13H23.5c-0.276,0-0.5,0.224-0.5,0.5V17h1 v-2.528l1.825,2.336C25.92,16.929,26.064,17,26.219,17H26.5c0.276,0,0.5-0.224,0.5-0.5V13H26z"/><rect width="1" height="4" x="8" y="13" fill="#66798f"/><path fill="#66798f" d="M12.851,15.054l-1.976-1V14H13v-1h-2.625c-0.276,0-0.5,0.224-0.5,0.5v0.861 c0,0.188,0.106,0.361,0.274,0.446l1.976,1V16H10v1h2.625c0.276,0,0.5-0.224,0.5-0.5v-1C13.125,15.312,13.019,15.139,12.851,15.054z"/><path fill="#66798f" d="M16.851,15.054l-1.976-1V14H17v-1h-2.625c-0.276,0-0.5,0.224-0.5,0.5v0.861 c0,0.188,0.106,0.361,0.274,0.446l1.976,1V16H14v1h2.625c0.276,0,0.5-0.224,0.5-0.5v-1C17.125,15.312,17.019,15.139,16.851,15.054z"/><path fill="#66798f" d="M20.529,13H19.55c-0.212,0-0.4,0.133-0.471,0.332L17.773,17h1.061l0.356-1h1.744l0.376,1h1.068 l-1.38-3.676C20.924,13.129,20.737,13,20.529,13z M19.546,15l0.356-1h0.28l0.376,1H19.546z"/></g></svg>