<svg fill="#000000" xmlns="http://www.w3.org/2000/svg"  viewBox="0 0 100 100" width="100px" height="100px"><path d="M 67 13 A 1.0001 1.0001 0 0 0 66.292969 14.707031 L 69.404297 17.818359 L 67.542969 19.679688 C 62.349685 16.752866 56.381667 15.028551 50.003906 15 A 1.0001 1.0001 0 0 0 50 15 C 30.129562 15 14 31.129562 14 51 C 14 70.870438 30.129562 87 50 87 C 69.870438 87 86 70.870438 86 51 A 1.0001 1.0001 0 0 0 86 50.996094 C 85.96644 43.580299 83.64571 36.719761 79.783203 30.996094 L 81.181641 29.595703 L 84.292969 32.707031 A 1.0001 1.0001 0 0 0 86 32 L 86 14 A 1.0001 1.0001 0 0 0 85 13 L 67 13 z M 69.414062 15 L 84 15 L 84 29.585938 L 81.888672 27.474609 A 1.0001 1.0001 0 0 0 80.474609 27.474609 L 77.818359 30.132812 A 1.0001 1.0001 0 0 0 77.708984 31.417969 C 81.6388 36.955083 83.96695 43.700807 84 51.003906 C 83.997855 69.791639 68.788237 85 50 85 C 31.210438 85 16 69.789562 16 51 C 16 32.211763 31.208361 17.002145 49.996094 17 C 56.292986 17.02819 62.174702 18.763032 67.228516 21.757812 A 1.0001 1.0001 0 0 0 68.445312 21.605469 L 71.525391 18.525391 A 1.0001 1.0001 0 0 0 71.525391 17.111328 L 69.414062 15 z M 50 20 C 49.14454 20 48.297447 20.03542 47.458984 20.103516 A 0.50005 0.50005 0 1 0 47.541016 21.099609 C 48.352555 21.033703 49.17146 21 50 21 A 0.50005 0.50005 0 1 0 50 20 z M 44.494141 20.494141 A 0.50005 0.50005 0 0 0 44.410156 20.503906 C 41.155351 21.096521 38.07712 22.197134 35.261719 23.720703 A 0.50075541 0.50075541 0 1 0 35.738281 24.601562 C 38.46288 23.127133 41.440649 22.059714 44.589844 21.486328 A 0.50005 0.50005 0 0 0 44.494141 20.494141 z M 32.873047 25.246094 A 0.50005 0.50005 0 0 0 32.605469 25.335938 C 31.787501 25.891748 30.997644 26.48599 30.238281 27.115234 A 0.50005 0.50005 0 1 0 30.876953 27.884766 C 31.61159 27.27601 32.375937 26.702252 33.167969 26.164062 A 0.50005 0.50005 0 0 0 32.873047 25.246094 z M 49.144531 26.003906 C 38.675765 26.189629 29.847135 32.915357 26.472656 42.210938 A 0.50005 0.50005 0 0 0 26.380859 42.455078 A 0.50005 0.50005 0 0 0 26.380859 42.457031 C 25.441763 45.133604 24.950689 48.017604 25.003906 51.017578 C 24.999306 51.296805 24.998906 51.576243 25.003906 51.855469 C 25.051617 54.544847 25.537506 57.124339 26.380859 59.533203 A 0.50005 0.50005 0 0 0 26.474609 59.792969 C 29.958488 69.393679 39.241915 76.187245 50.017578 75.996094 C 50.296805 76.000694 50.576243 76.001094 50.855469 75.996094 C 64.41683 75.755507 75.236679 64.544768 74.996094 50.982422 C 75.000694 50.703195 75.001094 50.423757 74.996094 50.144531 C 74.755507 36.58317 63.544768 25.763321 49.982422 26.003906 C 49.703195 25.999306 49.423757 25.998906 49.144531 26.003906 z M 49.181641 28.003906 C 49.448699 27.999106 49.715364 27.999106 49.982422 28.003906 A 1.0001 1.0001 0 0 0 50.017578 28.003906 C 59.601135 27.833902 67.878635 33.644434 71.308594 42 L 28.689453 42 C 32.009297 33.917897 39.882327 28.168882 49.181641 28.003906 z M 28.492188 28.861328 A 0.50005 0.50005 0 0 0 28.148438 29.011719 C 22.498891 34.626711 19 42.408357 19 51 C 19 60.340467 23.134011 68.723095 29.671875 74.40625 A 0.50049648 0.50049648 0 1 0 30.328125 73.650391 C 23.999989 68.149545 20 60.045533 20 51 C 20 42.679643 23.383109 35.15571 28.851562 29.720703 A 0.50005 0.50005 0 0 0 28.492188 28.861328 z M 28.304688 43 L 71.691406 43 C 72.491377 45.248821 72.951385 47.661497 72.996094 50.181641 C 73.000894 50.448699 73.000894 50.715364 72.996094 50.982422 A 1.0001 1.0001 0 0 0 72.996094 51.017578 C 73.045798 53.819506 72.581847 56.509204 71.695312 59 L 28.308594 59 C 27.508623 56.751179 27.048615 54.338503 27.003906 51.818359 C 26.999106 51.551301 26.999106 51.284636 27.003906 51.017578 A 1.0001 1.0001 0 0 0 27.003906 50.982422 C 26.954202 48.180495 27.418153 45.490795 28.304688 43 z M 29.25 47.25 L 29.25 48.462891 L 30.408203 48.462891 L 32.861328 54.75 L 35.681641 54.75 L 38.023438 48.460938 L 39.115234 48.460938 L 39.128906 47.25 L 35.546875 47.25 L 35.542969 48.46875 L 36.542969 48.46875 L 34.917969 52.941406 L 33.332031 48.46875 L 34.503906 48.46875 L 34.503906 47.25 L 29.25 47.25 z M 47.25 47.25 L 47.25 48.482422 L 48.412109 48.482422 L 48.412109 53.523438 L 47.25 53.523438 L 47.25 54.75 L 54.388672 54.75 L 54.388672 51.197266 L 53.578125 51.189453 C 53.578125 52.450453 52.859375 53.488281 51.984375 53.488281 L 50.773438 53.488281 L 50.773438 48.460938 L 51.994141 48.460938 L 51.994141 47.25 L 47.25 47.25 z M 53.826172 47.25 L 53.826172 48.466797 L 54.990234 48.466797 L 57.453125 54.783203 L 60.285156 54.783203 L 62.638672 48.466797 L 63.736328 48.466797 L 63.75 47.25 L 60.150391 47.25 L 60.146484 48.474609 L 61.150391 48.474609 L 59.517578 52.966797 L 57.925781 48.474609 L 59.103516 48.474609 L 59.103516 47.25 L 53.826172 47.25 z M 42.849609 47.251953 C 40.917609 47.205953 39.316484 48.764422 39.271484 50.732422 C 39.270484 50.784422 39.270484 50.837672 39.271484 50.888672 C 39.012484 52.738672 40.274797 54.452797 42.091797 54.716797 C 42.371797 54.757797 42.6565 54.761516 42.9375 54.728516 C 44.8085 54.737516 46.330844 53.198969 46.339844 51.292969 C 46.339844 51.190969 46.336125 51.088328 46.328125 50.986328 C 46.496125 49.101328 45.13225 47.434672 43.28125 47.263672 C 43.13725 47.250672 42.992609 47.246953 42.849609 47.251953 z M 67.277344 47.265625 C 65.356344 47.220625 63.76275 48.771516 63.71875 50.728516 C 63.71775 50.779516 63.71775 50.831813 63.71875 50.882812 C 63.46075 52.722813 64.715484 54.426453 66.521484 54.689453 C 66.800484 54.730453 67.083281 54.734172 67.363281 54.701172 C 69.224281 54.709172 70.739047 53.179203 70.748047 51.283203 C 70.748047 51.183203 70.745328 51.083375 70.736328 50.984375 C 70.906328 49.109375 69.550938 47.450344 67.710938 47.277344 C 67.566937 47.264344 67.422344 47.260625 67.277344 47.265625 z M 42.798828 48.259766 C 43.504828 48.259766 44.076172 49.463219 44.076172 50.949219 C 44.076172 52.435219 43.504828 53.640625 42.798828 53.640625 C 42.092828 53.640625 41.521484 52.436219 41.521484 50.949219 C 41.521484 49.462219 42.092828 48.259766 42.798828 48.259766 z M 67.226562 48.267578 C 67.928562 48.267578 68.498047 49.466359 68.498047 50.943359 C 68.498047 52.421359 67.928563 53.619141 67.226562 53.619141 C 66.524563 53.619141 65.955078 52.422359 65.955078 50.943359 C 65.955078 49.464359 66.524562 48.267578 67.226562 48.267578 z M 28.691406 60 L 71.310547 60 C 67.990703 68.082104 60.117673 73.831118 50.818359 73.996094 C 50.551301 74.000894 50.284636 74.000894 50.017578 73.996094 A 1.0001 1.0001 0 0 0 49.982422 73.996094 C 40.398865 74.166095 32.121365 68.355567 28.691406 60 z"/></svg>