<svg fill="#000000" xmlns="http://www.w3.org/2000/svg"  viewBox="0 0 100 100" width="100px" height="100px"><path d="M 34 32.992188 A 1.0001 1.0001 0 0 0 33 33.992188 L 33 38.992188 L 11.25 38.992188 A 1.0001 1.0001 0 0 0 10.359375 39.535156 L 0.109375 59.535156 A 1.0001 1.0001 0 0 0 1 60.992188 L 33 60.992188 L 33 65.992188 A 1.0001 1.0001 0 0 0 34 66.992188 L 66 66.992188 A 1.0001 1.0001 0 0 0 67 65.992188 L 67 60.992188 L 88.25 60.992188 A 1.0001 1.0001 0 0 0 89.130859 60.464844 L 99.880859 40.464844 A 1.0001 1.0001 0 0 0 99 38.992188 L 67 38.992188 L 67 33.992188 A 1.0001 1.0001 0 0 0 66 32.992188 L 34 32.992188 z M 35 34.992188 L 65 34.992188 L 65 39.992188 A 1.0001 1.0001 0 0 0 66 40.992188 L 97.328125 40.992188 L 87.652344 58.992188 L 66 58.992188 A 1.0001 1.0001 0 0 0 65 59.992188 L 65 64.992188 L 35 64.992188 L 35 59.992188 A 1.0001 1.0001 0 0 0 34 58.992188 L 2.6367188 58.992188 L 11.861328 40.992188 L 34 40.992188 A 1.0001 1.0001 0 0 0 35 39.992188 L 35 34.992188 z M 38.488281 37.982422 A 0.50005 0.50005 0 0 0 37.988281 38.482422 L 38 43.992188 L 30.5 43.992188 A 0.50005 0.50005 0 1 0 30.5 44.992188 L 38.5 44.992188 A 0.50005 0.50005 0 0 0 39 44.490234 L 38.990234 38.982422 L 61.509766 38.982422 A 0.50005 0.50005 0 1 0 61.509766 37.982422 L 38.488281 37.982422 z M 61.492188 40.986328 A 0.50005 0.50005 0 0 0 61 41.494141 L 61 44.492188 A 0.50005 0.50005 0 0 0 61.5 44.992188 L 63.5 44.994141 A 0.50005 0.50005 0 1 0 63.5 43.994141 L 62 43.992188 L 62 41.494141 A 0.50005 0.50005 0 0 0 61.492188 40.986328 z M 20.5 43.992188 A 0.50005 0.50005 0 0 0 20.060547 44.251953 L 18.96875 46.253906 A 0.50005 0.50005 0 1 0 19.845703 46.734375 L 20.796875 44.992188 L 27.5 44.992188 A 0.50005 0.50005 0 1 0 27.5 43.992188 L 20.5 43.992188 z M 77.5 43.992188 L 66.5 43.994141 A 0.50005 0.50005 0 1 0 66.5 44.994141 L 77.5 44.992188 A 0.50005 0.50005 0 1 0 77.5 43.992188 z M 80.5 43.992188 A 0.50005 0.50005 0 1 0 80.5 44.992188 L 86.722656 44.992188 L 82.177734 54.992188 L 61.5 54.992188 A 0.50005 0.50005 0 0 0 61 55.492188 L 61.009766 61.001953 L 38.988281 61.001953 L 39 55.492188 A 0.50005 0.50005 0 0 0 38.5 54.992188 L 15.341797 54.992188 L 18.689453 48.855469 A 0.5003632 0.5003632 0 1 0 17.810547 48.376953 L 14.060547 55.251953 A 0.50005 0.50005 0 0 0 14.5 55.992188 L 37.998047 55.992188 L 37.988281 61.501953 A 0.50005 0.50005 0 0 0 38.488281 62.001953 L 61.509766 62.001953 A 0.50005 0.50005 0 0 0 62.009766 61.501953 L 62 55.992188 L 82.5 55.992188 A 0.50005 0.50005 0 0 0 82.955078 55.699219 L 87.955078 44.699219 A 0.50005 0.50005 0 0 0 87.5 43.992188 L 80.5 43.992188 z"/></svg>