<svg fill="#000000" xmlns="http://www.w3.org/2000/svg"  viewBox="0 0 50 50" width="50px" height="50px"><path d="M 21 3 A 1.0001 1.0001 0 0 0 20.150391 3.4746094 L 7.2285156 24.347656 A 1.0001 1.0001 0 0 0 7.2304688 25.65625 A 1.0001 1.0001 0 0 0 7.2324219 25.658203 L 20.150391 46.525391 A 1.0001 1.0001 0 0 0 21 47 L 29 47 A 1.0001 1.0001 0 0 0 29.849609 46.525391 L 42.771484 25.652344 A 1.0001 1.0001 0 0 0 42.769531 24.34375 A 1.0001 1.0001 0 0 0 42.767578 24.341797 L 29.849609 3.4746094 A 1.0001 1.0001 0 0 0 29 3 L 21 3 z M 21.556641 5 L 28.443359 5 L 40.205078 24 L 32.574219 24 L 26.125 12.945312 L 28.349609 8.2519531 A 0.5 0.5 0 0 0 27.484375 7.7519531 L 24.25 12.339844 A 1.0001 1.0001 0 0 0 24.136719 12.496094 L 24.123047 12.517578 A 1.1 1.1 0 0 0 24.048828 12.640625 A 1.0040052 1.0040052 0 0 0 24.037109 12.667969 L 17.425781 24 L 9.7949219 24 L 21.556641 5 z M 25 14.984375 L 30.841797 25 L 25 35.015625 L 19.158203 25 L 25 14.984375 z M 9.7949219 26 L 17.425781 26 L 23.882812 37.068359 L 22.236328 40.751953 A 0.5 0.5 0 0 0 23.099609 41.251953 L 25.730469 37.681641 A 1.0001 1.0001 0 0 0 25.863281 37.503906 L 25.876953 37.480469 A 1.144 1.144 0 0 0 25.972656 37.320312 A 1.0060579 1.0060579 0 0 0 25.982422 37.298828 L 32.574219 26 L 40.205078 26 L 28.443359 45 L 21.556641 45 L 9.7949219 26 z"/></svg>